<svg width="69" height="69" viewBox="0 0 69 69" fill="none" xmlns="http://www.w3.org/2000/svg">
<path d="M34.6907 68.6188C53.6393 68.6188 69.0001 53.2579 69.0001 34.3094C69.0001 15.3608 53.6393 0 34.6907 0C15.7422 0 0.381348 15.3608 0.381348 34.3094C0.381348 53.2579 15.7422 68.6188 34.6907 68.6188Z" fill="#DF653E"/>
<path d="M53.2859 34.5975C53.2859 37.2189 53.2859 39.8548 53.2859 42.4763C53.2859 46.927 51.1254 50.0093 47.2508 52.0114C45.6664 52.8324 43.9524 53.1925 42.1663 53.1925C37.1107 53.1925 32.0406 53.279 26.9849 53.1637C22.9231 53.0773 19.6535 51.2913 17.4642 47.7912C16.5567 46.322 16.1102 44.7088 16.0958 42.9948C16.0958 37.4494 16.067 31.8896 16.0958 26.3442C16.1246 22.5417 17.9827 19.733 21.1371 17.7453C23.0095 16.5786 25.0837 16.0456 27.2874 16.0312C32.2134 16.0312 37.1251 16.0024 42.0655 16.0312C45.8681 16.06 49.0225 17.5436 51.3558 20.5972C52.6378 22.2824 53.2715 24.2413 53.2715 26.373C53.2859 29.0953 53.2859 31.8464 53.2859 34.5975ZM50.5204 34.6263C50.5204 31.8752 50.5204 29.0953 50.5204 26.3442C50.5204 24.8462 50.0739 23.4779 49.1953 22.2968C47.4813 19.9778 45.1047 18.8399 42.2672 18.8111C37.2691 18.7535 32.2711 18.7967 27.273 18.7967C25.7174 18.7967 24.2483 19.1568 22.9087 19.9346C20.3161 21.4326 18.8757 23.6219 18.8901 26.6755C18.9045 32.048 18.8901 37.4494 18.8901 42.8363C18.8901 44.3487 19.3366 45.7315 20.2296 46.927C21.9437 49.2459 24.3203 50.3694 27.1578 50.3982C32.1846 50.4558 37.2115 50.4126 42.2239 50.4126C43.3618 50.4126 44.4709 50.1678 45.5368 49.7357C48.3599 48.5978 50.6213 45.9619 50.5348 42.4474C50.4628 39.8404 50.5204 37.2333 50.5204 34.6263Z" fill="white"/>
<path d="M34.6903 42.5338C29.8363 42.5194 25.9617 38.6448 25.9761 33.8196C25.9905 29.1096 29.9371 25.2782 34.7479 25.2926C39.5587 25.307 43.4621 29.196 43.4477 33.9636C43.4477 38.7024 39.5299 42.5482 34.6903 42.5338ZM34.7623 28.0581C31.4639 28.0581 28.7992 30.6652 28.7704 33.8916C28.7704 37.1036 31.4351 39.7395 34.6903 39.7539C37.9887 39.7539 40.6822 37.1468 40.6966 33.9348C40.6966 30.7084 38.0319 28.0581 34.7623 28.0581Z" fill="white"/>
<path d="M46.3142 24.5869C46.3142 25.6384 45.4788 26.5026 44.4562 26.4882C43.4479 26.4882 42.6269 25.6096 42.6413 24.5581C42.6413 23.5211 43.4767 22.6713 44.485 22.6713C45.4932 22.6713 46.3142 23.5355 46.3142 24.5869Z" fill="white"/>
</svg>
