<svg width="69" height="69" viewBox="0 0 69 69" fill="none" xmlns="http://www.w3.org/2000/svg">
<path d="M34.3094 68.6188C53.2579 68.6188 68.6188 53.2579 68.6188 34.3094C68.6188 15.3609 53.2579 0 34.3094 0C15.3609 0 0 15.3609 0 34.3094C0 53.2579 15.3609 68.6188 34.3094 68.6188Z" fill="#DF653E"/>
<path d="M12.7777 35.9877C16.7884 33.7784 21.2655 31.9346 25.4487 30.0813C32.6454 27.0458 39.8706 24.0629 47.1688 21.2858C48.5888 20.8126 51.1401 20.3499 51.3903 22.4542C51.2533 25.4328 50.6898 28.394 50.3033 31.3552C49.3221 37.8671 48.1882 44.3567 47.0825 50.8472C46.7015 53.0091 43.9932 54.1283 42.2603 52.7448C38.0957 49.9317 33.8991 47.1461 29.7877 44.2678C28.4409 42.8993 29.6897 40.9341 30.8926 39.9568C34.3227 36.5765 37.9603 33.7045 41.2111 30.1495C42.088 28.0319 39.4971 29.8165 38.6425 30.3633C33.9467 33.5993 29.3658 37.0328 24.415 39.8768C21.8861 41.2689 18.9386 40.0792 16.4109 39.3024C14.1444 38.364 10.8235 37.4185 12.7777 35.9877Z" fill="white"/>
</svg>
