<svg width="68" height="69" viewBox="0 0 68 69" fill="none" xmlns="http://www.w3.org/2000/svg">
<path d="M34 0C15.2219 0 0 15.4458 0 34.5C0 53.5542 15.2219 69 34 69C52.7781 69 68 53.5542 68 34.5C68 15.4458 52.7781 0 34 0ZM52.2728 47.5922C50.8217 48.513 44.9255 48.7873 43.498 47.735C42.7151 47.158 41.9991 46.436 41.3193 45.7484C40.8435 45.2678 40.3035 45.0346 39.8948 44.5129C39.5611 44.0862 39.332 43.5824 38.9807 43.1609C38.3877 42.4538 37.4751 41.8522 36.7533 42.7162C35.6661 44.0159 36.9242 46.5683 35.4746 47.5391C34.9885 47.865 34.4979 47.9592 33.8902 47.9128L32.5445 47.9749C31.7542 47.9906 30.502 47.998 29.6027 47.8336C28.5995 47.6498 27.7708 47.0937 26.8634 46.6856C25.1413 45.9106 23.501 44.8545 22.2525 43.3918C18.8547 39.4082 14.2909 33.9297 12.518 28.9214C12.1534 27.8922 11.1899 25.8541 12.1033 24.9714C13.3451 24.0558 19.4402 23.798 20.3912 25.2135C20.7771 25.789 21.0209 26.6306 21.2942 27.2831C21.6345 28.0963 21.8186 28.8624 22.3504 29.5821C22.8211 30.2204 23.168 30.8624 23.5319 31.562C23.9407 32.3475 24.3266 33.1009 24.8238 33.8236C25.1612 34.3154 26.0532 35.2937 26.6166 35.3662C27.9925 35.5449 27.9071 32.1524 27.8047 31.3243C27.7068 30.5261 27.6817 29.6793 27.7075 28.8698C27.7296 28.1792 27.7907 27.2061 27.3878 26.6426C26.7308 25.7233 25.2672 26.4109 25.1531 25.1754C25.3947 24.8249 25.3438 24.514 26.9577 23.9744C28.229 23.5506 29.0503 23.564 29.8885 23.632C31.5973 23.7711 33.4093 23.3017 35.0592 23.8637C36.6354 24.4026 36.3916 26.6755 36.3386 28.0372C36.2672 29.896 36.3438 31.7107 36.3386 33.5979C36.3364 34.4566 36.3025 35.293 37.3352 35.2227C38.303 35.1577 38.4017 34.3311 38.8636 33.6495C39.5058 32.6988 40.0958 31.7346 40.7499 30.7877C41.6316 29.5074 41.8982 28.0686 42.7283 26.7569C43.0252 26.2883 43.2808 25.2898 43.7382 24.9191C44.0844 24.6373 44.7421 24.7845 45.1612 24.7845H46.1578C46.9201 24.7845 47.698 24.7786 48.4817 24.8062C49.6101 24.8458 50.874 24.5827 51.9929 24.7434C56.8211 25.4348 45.9243 35.9081 46.4915 37.7781C46.8833 39.0696 49.3692 40.5128 50.2664 41.5704C51.4574 42.9793 55.124 45.7798 52.2728 47.5922Z" fill="#DF653E"/>
</svg>
